{
  "accessors": [
    {
      "bufferView": 1,
      "componentType": 5126,
      "count": 65532,
      "max": [
        2.6366169452667236,
        2.0172860622406006,
        1.2029329538345337
      ],
      "min": [
        -2.6366169452667236,
        -4.285204887390137,
        -4.3638458251953125
      ],
      "type": "VEC3"
    },
    {
      "bufferView": 1,
      "byteOffset": 786384,
      "componentType": 5126,
      "count": 65532,
      "max": [
        0.9999957084655762,
        0.9999800324440002,
        0.9999916553497314
      ],
      "min": [
        -0.999997615814209,
        -0.9999167323112488,
        -0.9999906420707703
      ],
      "type": "VEC3"
    },
    {
      "bufferView": 0,
      "componentType": 5125,
      "count": 361650,
      "type": "SCALAR"
    },
    {
      "bufferView": 1,
      "byteOffset": 1572768,
      "componentType": 5126,
      "count": 18202,
      "max": [
        2.6145589351654053,
        2.0172860622406006,
        1.2007720470428467
      ],
      "min": [
        -2.6339609622955322,
        -4.282132148742676,
        -4.2756829261779785
      ],
      "type": "VEC3"
    },
    {
      "bufferView": 1,
      "byteOffset": 1791192,
      "componentType": 5126,
      "count": 18202,
      "max": [
        0.999968409538269,
        0.999997079372406,
        0.9998360872268677
      ],
      "min": [
        -0.999968409538269,
        -0.9987872838973999,
        -0.9999906420707703
      ],
      "type": "VEC3"
    },
    {
      "bufferView": 0,
      "byteOffset": 1446600,
      "componentType": 5125,
      "count": 63132,
      "type": "SCALAR"
    }
  ],
  "asset": {
    "extras": {
      "author": "Manun (https://sketchfab.com/crazymanuel)",
      "license": "CC-BY-4.0 (http://creativecommons.org/licenses/by/4.0/)",
      "source": "https://sketchfab.com/3d-models/3d-inktober-2019-ring-47fc986df52b4cd8afe94d25646377e2",
      "title": "3D Inktober 2019 - Ring"
    },
    "generator": "Sketchfab-12.66.0",
    "version": "2.0"
  },
  "bufferViews": [
    {
      "buffer": 0,
      "byteLength": 1699128,
      "name": "floatBufferViews",
      "target": 34963
    },
    {
      "buffer": 0,
      "byteLength": 2009616,
      "byteOffset": 1699128,
      "byteStride": 12,
      "name": "floatBufferViews",
      "target": 34962
    }
  ],
  "buffers": [
    {
      "byteLength": 3708744,
      "uri": "scene.bin"
    }
  ],
  "materials": [
    {
      "name": "null",
      "pbrMetallicRoughness": {
        "metallicFactor": 0.0,
        "roughnessFactor": 0.6
      }
    }
  ],
  "meshes": [
    {
      "name": "Object_0",
      "primitives": [
        {
          "attributes": {
            "NORMAL": 1,
            "POSITION": 0
          },
          "indices": 2,
          "material": 0,
          "mode": 4
        }
      ]
    },
    {
      "name": "Object_1",
      "primitives": [
        {
          "attributes": {
            "NORMAL": 4,
            "POSITION": 3
          },
          "indices": 5,
          "material": 0,
          "mode": 4
        }
      ]
    }
  ],
  "nodes": [
    {
      "children": [
        1
      ],
      "matrix": [
        -0.9662744402885437,
        5.717969364078549e-17,
        -0.25751444697380066,
        0.0,
        -0.25751444697380066,
        -2.1455602634302544e-16,
        0.9662744402885437,
        0.0,
        0.0,
        1.0,
        2.220446049250313e-16,
        0.0,
        -0.29202455282211304,
        -4.950866283845207e-16,
        2.2296719551086426,
        1.0
      ],
      "name": "Sketchfab_model"
    },
    {
      "children": [
        2,
        3
      ],
      "name": "ring.obj.cleaner.materialmerger.gles"
    },
    {
      "mesh": 0,
      "name": "Object_2"
    },
    {
      "mesh": 1,
      "name": "Object_3"
    }
  ],
  "scene": 0,
  "scenes": [
    {
      "name": "Sketchfab_Scene",
      "nodes": [
        0
      ]
    }
  ]
}
